<svg xmlns="http://www.w3.org/2000/svg"  viewBox="0 0 48 48" width="20" height="20" >
<path d="M0 0 C2.45426089 0.08462969 3.85064617 0.20657309 6.0625 1.3125 C7.64745415 4.48240831 7.77390218 7.85313253 7.0625 11.3125 C5.8203125 13.07421875 5.8203125 13.07421875 4.0625 14.3125 C1.96875 14.39453125 1.96875 14.39453125 -0.4375 14.125 C-6.21177606 13.89572727 -9.85378211 16.03385493 -14.6875 19 C-16.9375 20.3125 -16.9375 20.3125 -18.9375 20.3125 C-18.9375 20.9725 -18.9375 21.6325 -18.9375 22.3125 C-18.091875 22.56 -17.24625 22.8075 -16.375 23.0625 C-12.9375 24.3125 -12.9375 24.3125 -9.6875 26.4375 C-5.86118406 28.76916128 -2.54312643 28.53347741 1.828125 28.16015625 C4.0625 28.3125 4.0625 28.3125 5.8359375 29.55859375 C7.97197456 32.61299069 7.5838245 35.73770341 7.0625 39.3125 C6.0625 41.3125 6.0625 41.3125 4.0625 42.3125 C0.44524696 42.84001607 -2.7384712 43.08606697 -5.875 41.0625 C-6.9375 39.3125 -6.9375 39.3125 -7.09375 37.4375 C-8.4349098 34.05976421 -11.38337119 33.05259189 -14.5 31.5625 C-15.13462158 31.24958008 -15.76924316 30.93666016 -16.4230957 30.61425781 C-21.31311931 28.32496533 -24.66504037 27.91457852 -29.9375 28.3125 C-31.9375 27.3125 -31.9375 27.3125 -32.9375 25.3125 C-33.46252702 21.71231473 -33.86365378 18.58878508 -31.65625 15.546875 C-29.9375 14.3125 -29.9375 14.3125 -26.0625 14.5625 C-19.27814163 14.81956794 -13.26369603 11.26320781 -7.9375 7.3125 C-6.64743598 4.78455115 -6.64743598 4.78455115 -5.9375 2.3125 C-3.9375 0.3125 -3.9375 0.3125 0 0 Z " fill="#199AE0" transform="translate(36.9375,2.6875)"/>
<path d="M0 0 C3.50396966 1.0255521 6.17359157 2.11350218 9.25 4.125 C13.07631594 6.45666128 16.39437357 6.22097741 20.765625 5.84765625 C23 6 23 6 24.7734375 7.24609375 C26.90947456 10.30049069 26.5213245 13.42520341 26 17 C25 19 25 19 23 20 C19.38274696 20.52751607 16.1990288 20.77356697 13.0625 18.75 C12 17 12 17 11.875 15.15625 C10.44532687 11.63312692 7.15098265 10.4462665 3.9375 8.75 C3.27427734 8.38648438 2.61105469 8.02296875 1.92773438 7.6484375 C0.29154895 6.75383252 -1.35342724 5.87533933 -3 5 C-2.01 3.35 -1.02 1.7 0 0 Z " fill="#189AE1" transform="translate(18,25)"/>
<path d="M0 0 C2.0625 1.5625 2.0625 1.5625 3 4 C2.77861795 8.20625886 2.34955038 10.47567443 0 14 C-6.72 14.64 -6.72 14.64 -10 13 C-11.63102777 9.73794446 -11.51981506 6.56444611 -11 3 C-8.90899614 -1.18200773 -4.11694776 -0.75320458 0 0 Z " fill="#199AE1" transform="translate(15,17)"/>
<path d="M0 0 C5.31027254 1.46032495 9.46330032 3.98320986 14 7 C13.34 8.98 12.68 10.96 12 13 C7.38 10.69 2.76 8.38 -2 6 C-2 3 -2 3 0 0 Z " fill="#5F6D79" transform="translate(18,25)"/>
<path d="M0 0 C0.99 1.32 1.98 2.64 3 4 C1.68786941 7.93639176 0.17198478 8.28653597 -3.4375 10.1875 C-4.42621094 10.71730469 -5.41492188 11.24710938 -6.43359375 11.79296875 C-9 13 -9 13 -11 13 C-11.99 11.35 -12.98 9.7 -14 8 C-9.38 5.36 -4.76 2.72 0 0 Z " fill="#5F6E79" transform="translate(29,10)"/>
<path d="M0 0 C-3.3810038 4.13621084 -6.66590534 7.81316569 -11 11 C-11.35820896 3.71641791 -11.35820896 3.71641791 -10 1 C-6.72032242 -0.63983879 -3.62861311 -0.17845638 0 0 Z " fill="#27AEE9" transform="translate(15,17)"/>
<path d="M0 0 C-3.3810038 4.13621084 -6.66590534 7.81316569 -11 11 C-11.19966912 7.53906866 -11.32761013 4.7985497 -10 1.5625 C-6.81039012 -0.92938272 -3.96543085 -0.26002825 0 0 Z " fill="#27AEE9" transform="translate(41,31)"/>
<path d="M0 0 C-6.15034169 7.48291572 -6.15034169 7.48291572 -10 10 C-11 9 -11 9 -11.25 6.125 C-11 3 -11 3 -10 1.125 C-6.74686316 -0.70488947 -3.68609891 -0.18128355 0 0 Z " fill="#27ADE8" transform="translate(41,3)"/>
<path d="M0 0 C0.33 0 0.66 0 1 0 C1.36 5.4 1.36 5.4 -0.125 7.875 C-2.78034983 9.4682099 -4.96789518 9.20214032 -8 9 C-7.04270084 7.87411986 -6.08412105 6.7493285 -5.125 5.625 C-4.59132812 4.99851562 -4.05765625 4.37203125 -3.5078125 3.7265625 C-2.38567993 2.44163349 -1.20628025 1.20628025 0 0 Z " fill="#0F8CDC" transform="translate(43,36)"/>
<path d="M0 0 C0.33 0 0.66 0 1 0 C1.36 5.4 1.36 5.4 -0.125 7.875 C-2.78034983 9.4682099 -4.96789518 9.20214032 -8 9 C-7.04270084 7.87411986 -6.08412105 6.7493285 -5.125 5.625 C-4.59132812 4.99851562 -4.05765625 4.37203125 -3.5078125 3.7265625 C-2.38567993 2.44163349 -1.20628025 1.20628025 0 0 Z " fill="#0F8CDC" transform="translate(43,8)"/>
<path d="M0 0 C0.33 0 0.66 0 1 0 C0.25 6.625 0.25 6.625 -2 10 C-5.125 10.1875 -5.125 10.1875 -8 10 C-7.59007812 9.52949219 -7.18015625 9.05898438 -6.7578125 8.57421875 C-6.21898437 7.95160156 -5.68015625 7.32898438 -5.125 6.6875 C-4.59132813 6.07261719 -4.05765625 5.45773438 -3.5078125 4.82421875 C-1.8359553 2.86501788 -1.8359553 2.86501788 0 0 Z " fill="#128CD9" transform="translate(17,21)"/>
<path d="M0 0 C-1.39750048 3.15835107 -3.05198234 5.32272825 -5.5 7.75 C-6.41265625 8.67039062 -6.41265625 8.67039062 -7.34375 9.609375 C-9 11 -9 11 -11 11 C-9.60249952 7.84164893 -7.94801766 5.67727175 -5.5 3.25 C-4.8915625 2.63640625 -4.283125 2.0228125 -3.65625 1.390625 C-2 0 -2 0 0 0 Z " fill="#20A4E5" transform="translate(42,32)"/>
<path d="M0 0 C0.66 0.66 1.32 1.32 2 2 C0.54782324 3.50596108 -0.91192861 5.00462104 -2.375 6.5 C-3.18710938 7.3353125 -3.99921875 8.170625 -4.8359375 9.03125 C-7 11 -7 11 -9 11 C-7.59155282 7.78475695 -5.89655214 5.67816132 -3.375 3.25 C-2.74335938 2.63640625 -2.11171875 2.0228125 -1.4609375 1.390625 C-0.73777344 0.70226562 -0.73777344 0.70226562 0 0 Z " fill="#20A4E5" transform="translate(14,18)"/>
<path d="M0 0 C-1.40844718 3.21524305 -3.10344786 5.32183868 -5.625 7.75 C-6.57246094 8.67039062 -6.57246094 8.67039062 -7.5390625 9.609375 C-8.02117188 10.06828125 -8.50328125 10.5271875 -9 11 C-9.66 10.34 -10.32 9.68 -11 9 C-9.54782324 7.49403892 -8.08807139 5.99537896 -6.625 4.5 C-5.40683594 3.24703125 -5.40683594 3.24703125 -4.1640625 1.96875 C-2 0 -2 0 0 0 Z " fill="#21A4E5" transform="translate(42,4)"/>
<path d="M0 0 C1.32 0.33 2.64 0.66 4 1 C0.535 3.97 0.535 3.97 -3 7 C-2.25 2.25 -2.25 2.25 0 0 Z " fill="#2EB8EE" transform="translate(7,17)"/>
<path d="M0 0 C1.32 0.33 2.64 0.66 4 1 C0.535 3.97 0.535 3.97 -3 7 C-2.25 2.25 -2.25 2.25 0 0 Z " fill="#2EB8EE" transform="translate(33,3)"/>
<path d="M0 0 C1.32 0.33 2.64 0.66 4 1 C0.535 3.97 0.535 3.97 -3 7 C-2 3 -2 3 0 0 Z " fill="#30B4E7" transform="translate(33,31)"/>
</svg>
